# xmcd
#
# Track frame offsets: 
#        150
#        1983
#        17197
#        33016
#        49096
#        61626
#        76992
#        93302
#        103802
#        122069
#        130643
#        146023
#        157683
#        171897
#        187013
#        199117
#        210428
#        221744
#        236143
#        244928
#        254401
#        265596
#        277006
#        289398
#        297293
#        309589
#        320578
#        333207
#        345104
#
# Disc length: 4818 seconds
#
# Revision: 0
# Processed by: cddbd v1.4PL0 Copyright (c) Steve Scherf et al.
# Submitted via: ExactAudioCopy v0.90b4
#
DISCID=a212d01d
DTITLE=Various Artist - Country - Music History
DYEAR=1900
DGENRE=Other
TTITLE0=Authentic Steam Engine
TTITLE1=The Groove Grass Boyz - Macarrena (Club Mix)
TTITLE2=Rednex - Old Pop In An Oak
TTITLE3=Killbilly - Blue And Worried Man
TTITLE4=Johnny Cash and Martin Delray - Get Rhythm
TTITLE5=T. Cane Honey - Crash Bam Boom
TTITLE6=Carpenters - Jambalaya (No The Bayou)
TTITLE7=Garth Brooks - Against The Grain
TTITLE8=R and R - Redneck Rampage
TTITLE9=Dolly Parton - Hilly Billy Willy
TTITLE10=Rednex - Riding Alone
TTITLE11=Alabama - Mountain Music
TTITLE12=Wynonna - Girls With Guitars
TTITLE13=Billy Ray Cyrus - Achy Breaky Heart
TTITLE14=Kentucky Headhunters - Singing The Blues
TTITLE15=Dolly Parton - If You Need Me
TTITLE16=The Ventures - Expo Seven-O
TTITLE17=Carlene Carter - Every Little Thing
TTITLE18=Johnny Cash - Wreck Of The Old '97
TTITLE19=Killbilly - Darling Girl
TTITLE20=Johnny Cash - Big River
TTITLE21=S. Bound - Ode To 10-33
TTITLE22=Suzy Boggkss - Other Side Of The Hill
TTITLE23=Willie Nelson - Things To Remember
TTITLE24=Mark Chesnutt and George Jones - Talking To Hank
TTITLE25=Crystal Gayle - Don't It Make My Brown Eyes Blue
TTITLE26=Killbilly - Wake Up And Smell The Coffe
TTITLE27=Randy Travis - Heart Of Hearts
TTITLE28=Rednex - Wild And Free
EXTD=HALAHUP RECORDS\n"All rights of the producer and of the owner of 
EXTD=the recorder work reserved" ;]\nCompilation by HALAHUP\nDesign by
EXTD=Python\n\n2 CD\n\nCD 1: (copy of "Country and Western - Music Hist
EXTD=ory"]\n\nCD 2: (original compilation?]\n
EXTT0=
EXTT1=
EXTT2=
EXTT3=
EXTT4=
EXTT5=
EXTT6=
EXTT7=
EXTT8=
EXTT9=
EXTT10=
EXTT11=
EXTT12=
EXTT13=
EXTT14=
EXTT15=
EXTT16=
EXTT17=
EXTT18=
EXTT19=
EXTT20=
EXTT21=
EXTT22=
EXTT23=
EXTT24=
EXTT25=
EXTT26=
EXTT27=
EXTT28=
PLAYORDER=
